:SAMPLES-PER-SECOND 30
:FRAME-RANGE 1-744
:FULLY-SPECIFIED
:DEGREES
535
root  -97.4257 38.5663 73.4235 170.514 -30.5609 177.751
RightUpLeg  -8.13956 9.051 -4.37575
RightLeg  8.99543 -6.75545 -4.72446
RightFoot  0.209285 -0.730259 7.22449
RightToes  5.82063e-011 0 -3.6325e-017
Spine  11.9847 0.740382 1.43104
Spine1  -0.886438 1.98292 -6.78919
HEad  -2.37386 -35.2541 -11.0845
LeftShoulder1  3.29086 -4.29922 -36.1181
LeftArm  35.1518 -5.64897 -26.3495
LeftForeArm  -12.2545 -11.455 -16.1385
LeftHand  -1.21186 -5.11368 13.6459
RightShoulder  1.11012 -2.15331 70.5161
RightArm  17.0261 -4.25907 -5.27852
RightForeArm  11.529 -2.95263 16.7846
RightHand  1.99096 19.8859 8.55129
LeftUpLeg  16.7088 6.81963 0.966895
LeftLeg  1.45502 -10.7533 -0.158961
LeftFoot  -11.1288 0.0574927 5.10505
LeftToes  1.25507e-010 -3.78807e-010 5.71421e-011
536
root  -97.9244 38.3037 72.3344 171.415 -30.7264 177.205
RightUpLeg  -6.51702 0.637422 -3.98768
RightLeg  -4.41685 2.22291 -5.68646
RightFoot  -0.00947804 -0.820135 8.25168
RightToes  5.82063e-011 0 -3.6325e-017
Spine  11.1401 0.499297 0.644119
Spine1  -0.743086 1.77556 -6.99714
HEad  -3.14615 -36.1685 -10.6914
LeftShoulder1  3.29003 -4.35966 -35.7922
LeftArm  33.2053 -6.42862 -26.8405
LeftForeArm  -10.8892 -10.2963 -16.7353
LeftHand  -1.22395 -4.99634 13.9264
RightShoulder  1.20035 -2.05776 70.979
RightArm  17.3007 -4.34703 -5.73298
RightForeArm  10.5394 -2.77542 16.8764
RightHand  1.99136 19.6869 8.62682
LeftUpLeg  17.4167 7.07328 0.893471
LeftLeg  2.87517 -10.7268 -0.359872
LeftFoot  -13.7942 0.20241 5.57445
LeftToes  1.25507e-010 -3.78807e-010 5.71421e-011
537
root  -98.4323 38.0457 71.166 171.905 -30.9515 176.803
RightUpLeg  -6.84968 -0.80275 -4.83459
RightLeg  -10.2436 5.27356 -5.28466
RightFoot  -3.6038 -0.56563 7.98737
RightToes  5.82063e-011 0 -3.6325e-017
Spine  10.2108 0.323101 0.423209
Spine1  -0.128227 1.74576 -7.28408
HEad  -4.23734 -36.7724 -9.94956
LeftShoulder1  3.29198 -4.40987 -35.5572
LeftArm  32.0404 -6.88629 -27.2729
LeftForeArm  -10.4058 -9.61782 -17.066
LeftHand  -1.19959 -5.00123 13.6516
RightShoulder  1.2685 -1.98233 71.1633
RightArm  17.499 -4.34271 -5.75437
RightForeArm  10.5539 -2.74337 16.9044
RightHand  2.17051 20.0042 9.31625
LeftUpLeg  18.9141 7.00709 0.874092
LeftLeg  3.61649 -11.2241 -0.124867
LeftFoot  -16.2942 0.317943 5.08304
LeftToes  1.25507e-010 -3.78807e-010 5.71421e-011
538
root  -98.9182 37.7521 69.9601 171.666 -30.5822 176.851
RightUpLeg  -6.87244 -0.177389 -4.43492
RightLeg  -10.636 3.95573 -5.40799
RightFoot  -7.72213 -0.421014 11.6202
RightToes  5.82063e-011 0 -3.6325e-017
Spine  10.4204 0.576615 0.753729
Spine1  -0.2412 2.0231 -7.2411
HEad  -4.67828 -37.7337 -10.1621
LeftShoulder1  3.32806 -4.42105 -35.9447
LeftArm  31.9485 -7.02445 -27.3335
LeftForeArm  -10.4839 -9.36652 -17.2173
LeftHand  -1.20888 -4.92526 13.8507
RightShoulder  1.44239 -1.77711 71.1292
RightArm  17.5014 -4.30835 -5.84623
RightForeArm  11.0622 -2.88573 16.9112
RightHand  2.15236 20.1273 9.18648
LeftUpLeg  20.6919 7.01975 1.1792
LeftLeg  4.99043 -10.3871 0.327755
LeftFoot  -18.7555 0.437407 5.00741
LeftToes  1.25507e-010 -3.78807e-010 5.71421e-011
539
root  -99.3565 37.6189 68.7811 170.348 -29.7344 178.201
RightUpLeg  -7.11999 0.0601574 -2.88276
RightLeg  -6.33276 2.81123 -4.12809
RightFoot  -3.50508 -0.574595 8.0268
RightToes  5.82063e-011 0 -3.6325e-017
Spine  11.0128 0.630048 2.84237
Spine1  0.313307 2.2145 -6.86034
HEad  -4.88417 -37.8954 -10.5003
LeftShoulder1  3.31596 -4.34335 -36.1989
LeftArm  30.2789 -5.97643 -27.167
LeftForeArm  -9.33577 -9.35244 -17.0564
LeftHand  -1.24086 -4.84802 14.3083
RightShoulder  2.11537 -0.99078 71.2393
RightArm  18.2229 -3.73532 -5.95056
RightForeArm  10.718 -3.26255 17.1183
RightHand  1.98003 19.9768 8.46872
LeftUpLeg  23.4461 6.94938 2.63281
LeftLeg  5.02844 -9.49272 1.25116
LeftFoot  -19.999 0.432952 4.12992
LeftToes  1.25507e-010 -3.78807e-010 5.71421e-011
540
root  -99.8244 37.5507 67.5241 168.88 -29.6096 179.99
RightUpLeg  -5.64762 1.81504 -0.672455
RightLeg  -5.31124 0.265702 -4.91755
RightFoot  3.90967 -1.02556 7.84864
RightToes  5.82063e-011 0 -3.6325e-017
Spine  10.5313 0.202165 5.25501
Spine1  1.6202 1.99139 -6.06462
HEad  -3.8927 -37.6378 -11.4878
LeftShoulder1  3.30969 -4.32062 -36.2403
LeftArm  29.8125 -3.80955 -26.9758
LeftForeArm  -9.15418 -9.93052 -16.6492
LeftHand  -1.25633 -5.08145 14.1725
RightShoulder  2.72878 -0.265448 71.1494
RightArm  18.512 -2.84392 -5.75433
RightForeArm  10.6194 -3.9108 17.294
RightHand  2.04092 19.948 8.75404
LeftUpLeg  26.6378 6.33256 4.30373
LeftLeg  4.03729 -9.60944 2.69757
LeftFoot  -20.74 0.239959 1.40434
LeftToes  1.25507e-010 -3.78807e-010 5.71421e-011
541
root  -100.255 37.4668 66.1811 167.133 -29.9471 -178.302
RightUpLeg  -5.71636 2.43784 1.22048
RightLeg  0.0370816 -0.387856 -4.75779
RightFoot  6.98332 -1.52048 9.70405
RightToes  5.82063e-011 0 -3.6325e-017
Spine  10.899 -0.280155 6.84929
Spine1  1.66781 1.69609 -5.11017
HEad  -2.30607 -37.6203 -12.6771
LeftShoulder1  3.30452 -4.27044 -36.4408
LeftArm  30.3176 -1.29507 -26.7842
LeftForeArm  -9.23551 -10.5128 -16.299
LeftHand  -1.31648 -5.01982 14.9138
RightShoulder  3.01672 0.0692487 71.2146
RightArm  17.5441 -1.76517 -5.71347
RightForeArm  11.195 -4.64755 17.2959
RightHand  2.00512 20.0416 8.55811
LeftUpLeg  28.031 4.84713 6.48053
LeftLeg  7.51678 -9.20169 2.15229
LeftFoot  -21.5432 0.00718566 -1.36753
LeftToes  1.25507e-010 -3.78807e-010 5.71421e-011
